<?xml version="1.0" encoding="UTF-8" standalone="no"?>
<!-- Created with Inkscape (http://www.inkscape.org/) -->

<svg
   width="451.68607mm"
   height="43.786777mm"
   viewBox="0 0 451.68607 43.786777"
   version="1.1"
   id="svg31827"
   inkscape:version="1.1 (c68e22c387, 2021-05-23)"
   sodipodi:docname="11__Communication__Integration-41.svg"
   xmlns:inkscape="http://www.inkscape.org/namespaces/inkscape"
   xmlns:sodipodi="http://sodipodi.sourceforge.net/DTD/sodipodi-0.dtd"
   xmlns="http://www.w3.org/2000/svg"
   xmlns:svg="http://www.w3.org/2000/svg">
  <sodipodi:namedview
     id="namedview31829"
     pagecolor="#ffffff"
     bordercolor="#666666"
     borderopacity="1.0"
     inkscape:pageshadow="2"
     inkscape:pageopacity="0.0"
     inkscape:pagecheckerboard="0"
     inkscape:document-units="mm"
     showgrid="false"
     inkscape:zoom="1.14"
     inkscape:cx="928.50877"
     inkscape:cy="255.26316"
     inkscape:window-width="1920"
     inkscape:window-height="1018"
     inkscape:window-x="-8"
     inkscape:window-y="-8"
     inkscape:window-maximized="1"
     inkscape:current-layer="layer1"
     showguides="true"
     inkscape:guide-bbox="true">
    <sodipodi:guide
       position="173.81569,36.148312"
       orientation="0,-1"
       id="guide34421" />
    <sodipodi:guide
       position="173.11198,23.695754"
       orientation="0,-1"
       id="guide34423" />
    <sodipodi:guide
       position="225.77529,43.028581"
       orientation="1,0"
       id="guide34451" />
  </sodipodi:namedview>
  <defs
     id="defs31824">
    <clipPath
       clipPathUnits="userSpaceOnUse"
       id="clipPath31918">
      <path
         d="M 0,0 H 518.4 V 129.6 H 0 Z"
         id="path31916" />
    </clipPath>
    <clipPath
       clipPathUnits="userSpaceOnUse"
       id="clipPath31930">
      <path
         d="M 15.63,52.09 H 518.4 V 129.6 H 15.63 Z"
         id="path31928" />
    </clipPath>
    <clipPath
       clipPathUnits="userSpaceOnUse"
       id="clipPath32292">
      <path
         d="M 518.4,0 H 777.6 V 129.6 H 518.4 Z"
         id="path32290" />
    </clipPath>
    <clipPath
       clipPathUnits="userSpaceOnUse"
       id="clipPath32304">
      <path
         d="M 531.29,0 H 777.6 V 129.6 H 531.29 Z"
         id="path32302" />
    </clipPath>
    <clipPath
       clipPathUnits="userSpaceOnUse"
       id="clipPath32390">
      <path
         d="M 777.6,0 H 1296 V 129.6 H 777.6 Z"
         id="path32388" />
    </clipPath>
    <clipPath
       clipPathUnits="userSpaceOnUse"
       id="clipPath32402">
      <path
         d="M 793.23,52.09 H 1296 V 129.6 H 793.23 Z"
         id="path32400" />
    </clipPath>
    <clipPath
       clipPathUnits="userSpaceOnUse"
       id="clipPath1276">
      <path
         d="M 0,0 H 518.4 V 129.6 H 0 Z"
         id="path1274" />
    </clipPath>
    <clipPath
       clipPathUnits="userSpaceOnUse"
       id="clipPath1288">
      <path
         d="M 15.63,52.09 H 518.4 V 129.6 H 15.63 Z"
         id="path1286" />
    </clipPath>
    <clipPath
       clipPathUnits="userSpaceOnUse"
       id="clipPath1650">
      <path
         d="M 518.4,0 H 777.6 V 129.6 H 518.4 Z"
         id="path1648" />
    </clipPath>
    <clipPath
       clipPathUnits="userSpaceOnUse"
       id="clipPath1662">
      <path
         d="M 531.29,0 H 777.6 V 129.6 H 531.29 Z"
         id="path1660" />
    </clipPath>
    <clipPath
       clipPathUnits="userSpaceOnUse"
       id="clipPath1748">
      <path
         d="M 777.6,0 H 1296 V 129.6 H 777.6 Z"
         id="path1746" />
    </clipPath>
    <clipPath
       clipPathUnits="userSpaceOnUse"
       id="clipPath1760">
      <path
         d="M 793.23,52.09 H 1296 V 129.6 H 793.23 Z"
         id="path1758" />
    </clipPath>
  </defs>
  <g
     inkscape:label="Layer 1"
     inkscape:groupmode="layer"
     id="layer1"
     transform="translate(191.93223,-100.89003)">
    <g
       id="g31896"
       transform="matrix(0.35277777,0,0,-0.35277777,-197.44615,146.78308)" />
    <g
       id="g31898"
       transform="matrix(0.35277777,0,0,-0.35277777,-197.44615,146.78308)" />
    <g
       id="g31900"
       transform="matrix(0.35277777,0,0,-0.35277777,-197.44615,146.78308)" />
    <g
       id="g31902"
       transform="matrix(0.35277777,0,0,-0.35277777,-197.44615,146.78308)" />
    <g
       id="g31904"
       transform="matrix(0.35277777,0,0,-0.35277777,-197.44615,146.78308)" />
    <g
       id="g31906"
       transform="matrix(0.35277777,0,0,-0.35277777,-197.44615,146.78308)" />
    <g
       id="g31908"
       transform="matrix(0.35277777,0,0,-0.35277777,-197.44615,146.78308)" />
    <g
       id="g31910"
       transform="matrix(0.35277777,0,0,-0.35277777,-197.44615,146.78308)" />
    <g
       id="g31922"
       transform="matrix(0.35277777,0,0,-0.35277777,-197.44615,146.78308)" />
    <g
       id="g31982"
       transform="matrix(0.35277777,0,0,-0.35277777,-197.44615,146.78308)" />
    <g
       id="g31984"
       transform="matrix(0.35277777,0,0,-0.35277777,-197.44615,146.78308)" />
    <g
       id="g31986"
       transform="matrix(0.35277777,0,0,-0.35277777,-197.44615,146.78308)" />
    <g
       id="g31988"
       transform="matrix(0.35277777,0,0,-0.35277777,-197.44615,146.78308)" />
    <g
       id="g31990"
       transform="matrix(0.35277777,0,0,-0.35277777,-197.44615,146.78308)" />
    <g
       id="g31992"
       transform="matrix(0.35277777,0,0,-0.35277777,-197.44615,146.78308)" />
    <g
       id="g31994"
       transform="matrix(0.35277777,0,0,-0.35277777,-197.44615,146.78308)" />
    <g
       id="g31996"
       transform="matrix(0.35277777,0,0,-0.35277777,-197.44615,146.78308)" />
    <g
       id="g31998"
       transform="matrix(0.35277777,0,0,-0.35277777,-197.44615,146.78308)" />
    <g
       id="g32000"
       transform="matrix(0.35277777,0,0,-0.35277777,-197.44615,146.78308)" />
    <g
       id="g32002"
       transform="matrix(0.35277777,0,0,-0.35277777,-197.44615,146.78308)" />
    <g
       id="g32004"
       transform="matrix(0.35277777,0,0,-0.35277777,-197.44615,146.78308)" />
    <g
       id="g32006"
       transform="matrix(0.35277777,0,0,-0.35277777,-197.44615,146.78308)" />
    <g
       id="g32008"
       transform="matrix(0.35277777,0,0,-0.35277777,-197.44615,146.78308)" />
    <g
       id="g32010"
       transform="matrix(0.35277777,0,0,-0.35277777,-197.44615,146.78308)" />
    <g
       id="g32012"
       transform="matrix(0.35277777,0,0,-0.35277777,-197.44615,146.78308)" />
    <g
       id="g32014"
       transform="matrix(0.35277777,0,0,-0.35277777,-197.44615,146.78308)" />
    <g
       id="g32016"
       transform="matrix(0.35277777,0,0,-0.35277777,-197.44615,146.78308)" />
    <g
       id="g32018"
       transform="matrix(0.35277777,0,0,-0.35277777,-197.44615,146.78308)" />
    <g
       id="g32020"
       transform="matrix(0.35277777,0,0,-0.35277777,-197.44615,146.78308)" />
    <g
       id="g32022"
       transform="matrix(0.35277777,0,0,-0.35277777,-197.44615,146.78308)" />
    <g
       id="g32024"
       transform="matrix(0.35277777,0,0,-0.35277777,-197.44615,146.78308)" />
    <g
       id="g32026"
       transform="matrix(0.35277777,0,0,-0.35277777,-197.44615,146.78308)" />
    <g
       id="g32028"
       transform="matrix(0.35277777,0,0,-0.35277777,-197.44615,146.78308)" />
    <g
       id="g32030"
       transform="matrix(0.35277777,0,0,-0.35277777,-197.44615,146.78308)" />
    <g
       id="g32032"
       transform="matrix(0.35277777,0,0,-0.35277777,-197.44615,146.78308)" />
    <g
       id="g32056"
       transform="matrix(0.35277777,0,0,-0.35277777,-197.44615,146.78308)" />
    <g
       id="g32058"
       transform="matrix(0.35277777,0,0,-0.35277777,-197.44615,146.78308)" />
    <g
       id="g32060"
       transform="matrix(0.35277777,0,0,-0.35277777,-197.44615,146.78308)" />
    <g
       id="g32062"
       transform="matrix(0.35277777,0,0,-0.35277777,-197.44615,146.78308)" />
    <g
       id="g32064"
       transform="matrix(0.35277777,0,0,-0.35277777,-197.44615,146.78308)" />
    <g
       id="g32066"
       transform="matrix(0.35277777,0,0,-0.35277777,-197.44615,146.78308)" />
    <g
       id="g32068"
       transform="matrix(0.35277777,0,0,-0.35277777,-197.44615,146.78308)" />
    <g
       id="g32070"
       transform="matrix(0.35277777,0,0,-0.35277777,-197.44615,146.78308)" />
    <g
       id="g32072"
       transform="matrix(0.35277777,0,0,-0.35277777,-197.44615,146.78308)" />
    <g
       id="g32074"
       transform="matrix(0.35277777,0,0,-0.35277777,-197.44615,146.78308)" />
    <g
       id="g32076"
       transform="matrix(0.35277777,0,0,-0.35277777,-197.44615,146.78308)" />
    <g
       id="g32078"
       transform="matrix(0.35277777,0,0,-0.35277777,-197.44615,146.78308)" />
    <g
       id="g32080"
       transform="matrix(0.35277777,0,0,-0.35277777,-197.44615,146.78308)" />
    <g
       id="g32082"
       transform="matrix(0.35277777,0,0,-0.35277777,-197.44615,146.78308)" />
    <g
       id="g32084"
       transform="matrix(0.35277777,0,0,-0.35277777,-197.44615,146.78308)" />
    <g
       id="g32090"
       transform="matrix(0.35277777,0,0,-0.35277777,-197.44615,146.78308)" />
    <g
       id="g32092"
       transform="matrix(0.35277777,0,0,-0.35277777,-197.44615,146.78308)" />
    <g
       id="g32094"
       transform="matrix(0.35277777,0,0,-0.35277777,-197.44615,146.78308)" />
    <g
       id="g32100"
       transform="matrix(0.35277777,0,0,-0.35277777,-197.44615,146.78308)" />
    <g
       id="g32106"
       transform="matrix(0.35277777,0,0,-0.35277777,-197.44615,146.78308)" />
    <g
       id="g32112"
       transform="matrix(0.35277777,0,0,-0.35277777,-197.44615,146.78308)" />
    <g
       id="g32118"
       transform="matrix(0.35277777,0,0,-0.35277777,-197.44615,146.78308)" />
    <g
       id="g32124"
       transform="matrix(0.35277777,0,0,-0.35277777,-197.44615,146.78308)" />
    <g
       id="g32130"
       transform="matrix(0.35277777,0,0,-0.35277777,-197.44615,146.78308)" />
    <g
       id="g32136"
       transform="matrix(0.35277777,0,0,-0.35277777,-197.44615,146.78308)" />
    <g
       id="g32142"
       transform="matrix(0.35277777,0,0,-0.35277777,-197.44615,146.78308)" />
    <g
       id="g32148"
       transform="matrix(0.35277777,0,0,-0.35277777,-197.44615,146.78308)" />
    <g
       id="g32154"
       transform="matrix(0.35277777,0,0,-0.35277777,-197.44615,146.78308)" />
    <g
       id="g32160"
       transform="matrix(0.35277777,0,0,-0.35277777,-197.44615,146.78308)" />
    <g
       id="g32166"
       transform="matrix(0.35277777,0,0,-0.35277777,-197.44615,146.78308)" />
    <g
       id="g32172"
       transform="matrix(0.35277777,0,0,-0.35277777,-197.44615,146.78308)" />
    <g
       id="g32178"
       transform="matrix(0.35277777,0,0,-0.35277777,-197.44615,146.78308)" />
    <g
       id="g32184"
       transform="matrix(0.35277777,0,0,-0.35277777,-197.44615,146.78308)" />
    <g
       id="g32186"
       transform="matrix(0.35277777,0,0,-0.35277777,-197.44615,146.78308)" />
    <g
       id="g32188"
       transform="matrix(0.35277777,0,0,-0.35277777,-197.44615,146.78308)" />
    <g
       id="g32196"
       transform="matrix(0.35277777,0,0,-0.35277777,-197.44615,146.78308)" />
    <g
       id="g32198"
       transform="matrix(0.35277777,0,0,-0.35277777,-197.44615,146.78308)" />
    <g
       id="g32200"
       transform="matrix(0.35277777,0,0,-0.35277777,-197.44615,146.78308)" />
    <g
       id="g32202"
       transform="matrix(0.35277777,0,0,-0.35277777,-197.44615,146.78308)" />
    <g
       id="g32210"
       transform="matrix(0.35277777,0,0,-0.35277777,-197.44615,146.78308)" />
    <g
       id="g32212"
       transform="matrix(0.35277777,0,0,-0.35277777,-197.44615,146.78308)" />
    <g
       id="g32214"
       transform="matrix(0.35277777,0,0,-0.35277777,-197.44615,146.78308)" />
    <g
       id="g32216"
       transform="matrix(0.35277777,0,0,-0.35277777,-197.44615,146.78308)" />
    <g
       id="g32224"
       transform="matrix(0.35277777,0,0,-0.35277777,-197.44615,146.78308)" />
    <g
       id="g32226"
       transform="matrix(0.35277777,0,0,-0.35277777,-197.44615,146.78308)" />
    <g
       id="g32228"
       transform="matrix(0.35277777,0,0,-0.35277777,-197.44615,146.78308)" />
    <g
       id="g32230"
       transform="matrix(0.35277777,0,0,-0.35277777,-197.44615,146.78308)" />
    <g
       id="g32238"
       transform="matrix(0.35277777,0,0,-0.35277777,-197.44615,146.78308)" />
    <g
       id="g32240"
       transform="matrix(0.35277777,0,0,-0.35277777,-197.44615,146.78308)" />
    <g
       id="g32242"
       transform="matrix(0.35277777,0,0,-0.35277777,-197.44615,146.78308)" />
    <g
       id="g32244"
       transform="matrix(0.35277777,0,0,-0.35277777,-197.44615,146.78308)" />
    <g
       id="g32252"
       transform="matrix(0.35277777,0,0,-0.35277777,-197.44615,146.78308)" />
    <g
       id="g32254"
       transform="matrix(0.35277777,0,0,-0.35277777,-197.44615,146.78308)" />
    <g
       id="g32256"
       transform="matrix(0.35277777,0,0,-0.35277777,-197.44615,146.78308)" />
    <g
       id="g32258"
       transform="matrix(0.35277777,0,0,-0.35277777,-197.44615,146.78308)" />
    <g
       id="g32260"
       transform="matrix(0.35277777,0,0,-0.35277777,-197.44615,146.78308)" />
    <g
       id="g32262"
       transform="matrix(0.35277777,0,0,-0.35277777,-197.44615,146.78308)" />
    <g
       id="g32264"
       transform="matrix(0.35277777,0,0,-0.35277777,-197.44615,146.78308)" />
    <g
       id="g32266"
       transform="matrix(0.35277777,0,0,-0.35277777,-197.44615,146.78308)" />
    <g
       id="g32268"
       transform="matrix(0.35277777,0,0,-0.35277777,-197.44615,146.78308)" />
    <g
       id="g32270"
       transform="matrix(0.35277777,0,0,-0.35277777,-197.44615,146.78308)" />
    <g
       id="g32272"
       transform="matrix(0.35277777,0,0,-0.35277777,-197.44615,146.78308)" />
    <g
       id="g32274"
       transform="matrix(0.35277777,0,0,-0.35277777,-197.44615,146.78308)" />
    <g
       id="g32276"
       transform="matrix(0.35277777,0,0,-0.35277777,-197.44615,146.78308)" />
    <g
       id="g32278"
       transform="matrix(0.35277777,0,0,-0.35277777,-197.44615,146.78308)" />
    <g
       id="g32280"
       transform="matrix(0.35277777,0,0,-0.35277777,-197.44615,146.78308)" />
    <g
       id="g32282"
       transform="matrix(0.35277777,0,0,-0.35277777,-197.44615,146.78308)" />
    <g
       id="g32284"
       transform="matrix(0.35277777,0,0,-0.35277777,-197.44615,146.78308)" />
    <g
       id="g32296"
       transform="matrix(0.35277777,0,0,-0.35277777,-197.44615,146.78308)" />
    <g
       id="g32298"
       transform="matrix(0.35277777,0,0,-0.35277777,-197.44615,146.78308)">
      <g
         id="g32300"
         clip-path="url(#clipPath32304)" />
    </g>
    <g
       id="g32306"
       transform="matrix(0.35277777,0,0,-0.35277777,-197.44615,146.78308)" />
    <g
       id="g32308"
       transform="matrix(0.35277777,0,0,-0.35277777,-197.44615,146.78308)" />
    <g
       id="g32310"
       transform="matrix(0.35277777,0,0,-0.35277777,-197.44615,146.78308)" />
    <g
       id="g32312"
       transform="matrix(0.35277777,0,0,-0.35277777,-197.44615,146.78308)" />
    <g
       id="g32314"
       transform="matrix(0.35277777,0,0,-0.35277777,-197.44615,146.78308)" />
    <g
       id="g32316"
       transform="matrix(0.35277777,0,0,-0.35277777,-197.44615,146.78308)" />
    <g
       id="g32318"
       transform="matrix(0.35277777,0,0,-0.35277777,-197.44615,146.78308)" />
    <g
       id="g32320"
       transform="matrix(0.35277777,0,0,-0.35277777,-197.44615,146.78308)" />
    <g
       id="g32322"
       transform="matrix(0.35277777,0,0,-0.35277777,-197.44615,146.78308)" />
    <g
       id="g32324"
       transform="matrix(0.35277777,0,0,-0.35277777,-197.44615,146.78308)" />
    <g
       id="g32326"
       transform="matrix(0.35277777,0,0,-0.35277777,-197.44615,146.78308)" />
    <g
       id="g32328"
       transform="matrix(0.35277777,0,0,-0.35277777,-197.44615,146.78308)" />
    <g
       id="g32330"
       transform="matrix(0.35277777,0,0,-0.35277777,-197.44615,146.78308)" />
    <g
       id="g32332"
       transform="matrix(0.35277777,0,0,-0.35277777,-197.44615,146.78308)" />
    <g
       id="g32334"
       transform="matrix(0.35277777,0,0,-0.35277777,-197.44615,146.78308)" />
    <g
       id="g32336"
       transform="matrix(0.35277777,0,0,-0.35277777,-197.44615,146.78308)" />
    <g
       id="g32338"
       transform="matrix(0.35277777,0,0,-0.35277777,-197.44615,146.78308)" />
    <g
       id="g32340"
       transform="matrix(0.35277777,0,0,-0.35277777,-197.44615,146.78308)" />
    <g
       id="g32342"
       transform="matrix(0.35277777,0,0,-0.35277777,-197.44615,146.78308)" />
    <g
       id="g32344"
       transform="matrix(0.35277777,0,0,-0.35277777,-197.44615,146.78308)" />
    <g
       id="g32346"
       transform="matrix(0.35277777,0,0,-0.35277777,-197.44615,146.78308)" />
    <g
       id="g32348"
       transform="matrix(0.35277777,0,0,-0.35277777,-197.44615,146.78308)" />
    <g
       id="g32350"
       transform="matrix(0.35277777,0,0,-0.35277777,-197.44615,146.78308)" />
    <g
       id="g32352"
       transform="matrix(0.35277777,0,0,-0.35277777,-197.44615,146.78308)" />
    <g
       id="g32354"
       transform="matrix(0.35277777,0,0,-0.35277777,-197.44615,146.78308)" />
    <g
       id="g32356"
       transform="matrix(0.35277777,0,0,-0.35277777,-197.44615,146.78308)" />
    <g
       id="g32358"
       transform="matrix(0.35277777,0,0,-0.35277777,-197.44615,146.78308)" />
    <g
       id="g32360"
       transform="matrix(0.35277777,0,0,-0.35277777,-197.44615,146.78308)" />
    <g
       id="g32362"
       transform="matrix(0.35277777,0,0,-0.35277777,-197.44615,146.78308)" />
    <g
       id="g32364"
       transform="matrix(0.35277777,0,0,-0.35277777,-197.44615,146.78308)" />
    <g
       id="g32366"
       transform="matrix(0.35277777,0,0,-0.35277777,-197.44615,146.78308)" />
    <g
       id="g32368"
       transform="matrix(0.35277777,0,0,-0.35277777,-197.44615,146.78308)" />
    <g
       id="g32370"
       transform="matrix(0.35277777,0,0,-0.35277777,-197.44615,146.78308)" />
    <g
       id="g32372"
       transform="matrix(0.35277777,0,0,-0.35277777,-197.44615,146.78308)" />
    <g
       id="g32374"
       transform="matrix(0.35277777,0,0,-0.35277777,-197.44615,146.78308)" />
    <g
       id="g32376"
       transform="matrix(0.35277777,0,0,-0.35277777,-197.44615,146.78308)" />
    <g
       id="g32378"
       transform="matrix(0.35277777,0,0,-0.35277777,-197.44615,146.78308)" />
    <g
       id="g32380"
       transform="matrix(0.35277777,0,0,-0.35277777,-197.44615,146.78308)" />
    <g
       id="g32382"
       transform="matrix(0.35277777,0,0,-0.35277777,-197.44615,146.78308)" />
    <g
       id="g32394"
       transform="matrix(0.35277777,0,0,-0.35277777,-197.44615,146.78308)" />
    <g
       id="g32456"
       transform="matrix(0.35277777,0,0,-0.35277777,-197.44615,146.78308)" />
    <g
       id="g32458"
       transform="matrix(0.35277777,0,0,-0.35277777,-197.44615,146.78308)" />
    <g
       id="g32460"
       transform="matrix(0.35277777,0,0,-0.35277777,-197.44615,146.78308)" />
    <g
       id="g32462"
       transform="matrix(0.35277777,0,0,-0.35277777,-197.44615,146.78308)" />
    <g
       id="g32464"
       transform="matrix(0.35277777,0,0,-0.35277777,-197.44615,146.78308)" />
    <g
       id="g32466"
       transform="matrix(0.35277777,0,0,-0.35277777,-197.44615,146.78308)" />
    <g
       id="g32468"
       transform="matrix(0.35277777,0,0,-0.35277777,-197.44615,146.78308)" />
    <g
       id="g32470"
       transform="matrix(0.35277777,0,0,-0.35277777,-197.44615,146.78308)" />
    <g
       id="g32472"
       transform="matrix(0.35277777,0,0,-0.35277777,-197.44615,146.78308)" />
    <g
       id="g32474"
       transform="matrix(0.35277777,0,0,-0.35277777,-197.44615,146.78308)" />
    <g
       id="g32476"
       transform="matrix(0.35277777,0,0,-0.35277777,-197.44615,146.78308)" />
    <g
       id="g32478"
       transform="matrix(0.35277777,0,0,-0.35277777,-197.44615,146.78308)" />
    <g
       id="g32480"
       transform="matrix(0.35277777,0,0,-0.35277777,-197.44615,146.78308)" />
    <g
       id="g32482"
       transform="matrix(0.35277777,0,0,-0.35277777,-197.44615,146.78308)" />
    <g
       id="g32484"
       transform="matrix(0.35277777,0,0,-0.35277777,-197.44615,146.78308)" />
    <g
       id="g32486"
       transform="matrix(0.35277777,0,0,-0.35277777,-197.44615,146.78308)" />
    <g
       id="g32488"
       transform="matrix(0.35277777,0,0,-0.35277777,-197.44615,146.78308)" />
    <g
       id="g32490"
       transform="matrix(0.35277777,0,0,-0.35277777,-197.44615,146.78308)" />
    <g
       id="g32492"
       transform="matrix(0.35277777,0,0,-0.35277777,-197.44615,146.78308)" />
    <g
       id="g32494"
       transform="matrix(0.35277777,0,0,-0.35277777,-197.44615,146.78308)" />
    <g
       id="g32496"
       transform="matrix(0.35277777,0,0,-0.35277777,-197.44615,146.78308)" />
    <g
       id="g32498"
       transform="matrix(0.35277777,0,0,-0.35277777,-197.44615,146.78308)" />
    <g
       id="g32500"
       transform="matrix(0.35277777,0,0,-0.35277777,-197.44615,146.78308)" />
    <g
       id="g32502"
       transform="matrix(0.35277777,0,0,-0.35277777,-197.44615,146.78308)" />
    <g
       id="g32504"
       transform="matrix(0.35277777,0,0,-0.35277777,-197.44615,146.78308)" />
    <g
       id="g32506"
       transform="matrix(0.35277777,0,0,-0.35277777,-197.44615,146.78308)" />
    <g
       id="g32530"
       transform="matrix(0.35277777,0,0,-0.35277777,-197.44615,146.78308)" />
    <g
       id="g32532"
       transform="matrix(0.35277777,0,0,-0.35277777,-197.44615,146.78308)" />
    <g
       id="g32534"
       transform="matrix(0.35277777,0,0,-0.35277777,-197.44615,146.78308)" />
    <g
       id="g32536"
       transform="matrix(0.35277777,0,0,-0.35277777,-197.44615,146.78308)" />
    <g
       id="g32538"
       transform="matrix(0.35277777,0,0,-0.35277777,-197.44615,146.78308)" />
    <g
       id="g32540"
       transform="matrix(0.35277777,0,0,-0.35277777,-197.44615,146.78308)" />
    <g
       id="g32542"
       transform="matrix(0.35277777,0,0,-0.35277777,-197.44615,146.78308)" />
    <g
       id="g32544"
       transform="matrix(0.35277777,0,0,-0.35277777,-197.44615,146.78308)" />
    <g
       id="g32546"
       transform="matrix(0.35277777,0,0,-0.35277777,-197.44615,146.78308)" />
    <g
       id="g32548"
       transform="matrix(0.35277777,0,0,-0.35277777,-197.44615,146.78308)" />
    <g
       id="g32550"
       transform="matrix(0.35277777,0,0,-0.35277777,-197.44615,146.78308)" />
    <g
       id="g32552"
       transform="matrix(0.35277777,0,0,-0.35277777,-197.44615,146.78308)" />
    <g
       id="g32554"
       transform="matrix(0.35277777,0,0,-0.35277777,-197.44615,146.78308)" />
    <g
       id="g32556"
       transform="matrix(0.35277777,0,0,-0.35277777,-197.44615,146.78308)" />
    <g
       id="g32558"
       transform="matrix(0.35277777,0,0,-0.35277777,-197.44615,146.78308)" />
    <g
       id="g32564"
       transform="matrix(0.35277777,0,0,-0.35277777,-197.44615,146.78308)" />
    <g
       id="g32566"
       transform="matrix(0.35277777,0,0,-0.35277777,-197.44615,146.78308)" />
    <g
       id="g32568"
       transform="matrix(0.35277777,0,0,-0.35277777,-197.44615,146.78308)" />
    <g
       id="g32574"
       transform="matrix(0.35277777,0,0,-0.35277777,-197.44615,146.78308)" />
    <g
       id="g32580"
       transform="matrix(0.35277777,0,0,-0.35277777,-197.44615,146.78308)" />
    <g
       id="g32586"
       transform="matrix(0.35277777,0,0,-0.35277777,-197.44615,146.78308)" />
    <g
       id="g32592"
       transform="matrix(0.35277777,0,0,-0.35277777,-197.44615,146.78308)" />
    <g
       id="g32598"
       transform="matrix(0.35277777,0,0,-0.35277777,-197.44615,146.78308)" />
    <g
       id="g32604"
       transform="matrix(0.35277777,0,0,-0.35277777,-197.44615,146.78308)" />
    <g
       id="g32610"
       transform="matrix(0.35277777,0,0,-0.35277777,-197.44615,146.78308)" />
    <g
       id="g32616"
       transform="matrix(0.35277777,0,0,-0.35277777,-197.44615,146.78308)" />
    <g
       id="g32622"
       transform="matrix(0.35277777,0,0,-0.35277777,-197.44615,146.78308)" />
    <g
       id="g32628"
       transform="matrix(0.35277777,0,0,-0.35277777,-197.44615,146.78308)" />
    <g
       id="g32634"
       transform="matrix(0.35277777,0,0,-0.35277777,-197.44615,146.78308)" />
    <g
       id="g32640"
       transform="matrix(0.35277777,0,0,-0.35277777,-197.44615,146.78308)" />
    <g
       id="g32646"
       transform="matrix(0.35277777,0,0,-0.35277777,-197.44615,146.78308)" />
    <g
       id="g32652"
       transform="matrix(0.35277777,0,0,-0.35277777,-197.44615,146.78308)" />
    <g
       id="g32658"
       transform="matrix(0.35277777,0,0,-0.35277777,-197.44615,146.78308)" />
    <g
       id="g32660"
       transform="matrix(0.35277777,0,0,-0.35277777,-197.44615,146.78308)" />
    <g
       id="g32662"
       transform="matrix(0.35277777,0,0,-0.35277777,-197.44615,146.78308)" />
    <g
       id="g32670"
       transform="matrix(0.35277777,0,0,-0.35277777,-197.44615,146.78308)" />
    <g
       id="g32672"
       transform="matrix(0.35277777,0,0,-0.35277777,-197.44615,146.78308)" />
    <g
       id="g32674"
       transform="matrix(0.35277777,0,0,-0.35277777,-197.44615,146.78308)" />
    <g
       id="g32676"
       transform="matrix(0.35277777,0,0,-0.35277777,-197.44615,146.78308)" />
    <g
       id="g32684"
       transform="matrix(0.35277777,0,0,-0.35277777,-197.44615,146.78308)" />
    <g
       id="g32686"
       transform="matrix(0.35277777,0,0,-0.35277777,-197.44615,146.78308)" />
    <g
       id="g32688"
       transform="matrix(0.35277777,0,0,-0.35277777,-197.44615,146.78308)" />
    <g
       id="g32690"
       transform="matrix(0.35277777,0,0,-0.35277777,-197.44615,146.78308)" />
    <g
       id="g32698"
       transform="matrix(0.35277777,0,0,-0.35277777,-197.44615,146.78308)" />
    <g
       id="g32700"
       transform="matrix(0.35277777,0,0,-0.35277777,-197.44615,146.78308)" />
    <g
       id="g32702"
       transform="matrix(0.35277777,0,0,-0.35277777,-197.44615,146.78308)" />
    <g
       id="g32704"
       transform="matrix(0.35277777,0,0,-0.35277777,-197.44615,146.78308)" />
    <g
       id="g32712"
       transform="matrix(0.35277777,0,0,-0.35277777,-197.44615,146.78308)" />
    <g
       id="g32714"
       transform="matrix(0.35277777,0,0,-0.35277777,-197.44615,146.78308)" />
    <g
       id="g32716"
       transform="matrix(0.35277777,0,0,-0.35277777,-197.44615,146.78308)" />
    <g
       id="g32718"
       transform="matrix(0.35277777,0,0,-0.35277777,-197.44615,146.78308)" />
    <g
       id="g32726"
       transform="matrix(0.35277777,0,0,-0.35277777,-197.44615,146.78308)" />
    <g
       id="g32728"
       transform="matrix(0.35277777,0,0,-0.35277777,-197.44615,146.78308)" />
    <g
       id="g32730"
       transform="matrix(0.35277777,0,0,-0.35277777,-197.44615,146.78308)" />
    <g
       id="g32732"
       transform="matrix(0.35277777,0,0,-0.35277777,-197.44615,146.78308)" />
    <g
       id="g32734"
       transform="matrix(0.35277777,0,0,-0.35277777,-197.44615,146.78308)" />
    <g
       id="g32736"
       transform="matrix(0.35277777,0,0,-0.35277777,-197.44615,146.78308)" />
    <g
       id="g32738"
       transform="matrix(0.35277777,0,0,-0.35277777,-197.44615,146.78308)" />
    <g
       id="g32740"
       transform="matrix(0.35277777,0,0,-0.35277777,-197.44615,146.78308)" />
    <g
       id="g32742"
       transform="matrix(0.35277777,0,0,-0.35277777,-197.44615,146.78308)" />
    <g
       id="g32744"
       transform="matrix(0.35277777,0,0,-0.35277777,-197.44615,146.78308)" />
    <g
       id="g32746"
       transform="matrix(0.35277777,0,0,-0.35277777,-197.44615,146.78308)" />
    <g
       id="g32748"
       transform="matrix(0.35277777,0,0,-0.35277777,-197.44615,146.78308)" />
    <g
       id="g32750"
       transform="matrix(0.35277777,0,0,-0.35277777,-197.44615,146.78308)" />
    <g
       id="g32752"
       transform="matrix(0.35277777,0,0,-0.35277777,-197.44615,146.78308)" />
    <text
       xml:space="preserve"
       style="font-style:normal;font-weight:normal;font-size:3.52778px;line-height:1.25;font-family:sans-serif;fill:#000000;fill-opacity:1;stroke:none;stroke-width:0.264583"
       x="33.783077"
       y="122.22147"
       id="text3613-9-2-6-9-4-1-7-1"><tspan
         sodipodi:role="line"
         id="tspan3611-0-9-7-8-0-5-0-3"
         style="font-style:normal;font-variant:normal;font-weight:normal;font-stretch:normal;font-size:3.52778px;font-family:helvetica;-inkscape-font-specification:helvetica;text-align:center;text-anchor:middle;stroke-width:0.264583"
         x="33.783077"
         y="122.22147">Built-in communication tools</tspan></text>
    <text
       xml:space="preserve"
       style="font-style:normal;font-weight:normal;font-size:3.52778px;line-height:1.25;font-family:sans-serif;fill:#000000;fill-opacity:1;stroke:none;stroke-width:0.264583"
       x="33.772739"
       y="109.77016"
       id="text3613-9-2-6-9-4-1-7-1-0"><tspan
         sodipodi:role="line"
         id="tspan3611-0-9-7-8-0-5-0-3-3"
         style="font-style:normal;font-variant:normal;font-weight:normal;font-stretch:normal;font-size:3.52778px;font-family:helvetica;-inkscape-font-specification:helvetica;text-align:center;text-anchor:middle;stroke-width:0.264583"
         x="33.772739"
         y="109.77016">External communication tools</tspan></text>
    <g
       id="g1254"
       transform="matrix(0.35277777,0,0,-0.35277777,-197.44615,146.61003)" />
    <g
       id="g1256"
       transform="matrix(0.35277777,0,0,-0.35277777,-197.44615,146.61003)" />
    <g
       id="g1258"
       transform="matrix(0.35277777,0,0,-0.35277777,-197.44615,146.61003)" />
    <g
       id="g1260"
       transform="matrix(0.35277777,0,0,-0.35277777,-197.44615,146.61003)" />
    <g
       id="g1262"
       transform="matrix(0.35277777,0,0,-0.35277777,-197.44615,146.61003)" />
    <g
       id="g1264"
       transform="matrix(0.35277777,0,0,-0.35277777,-197.44615,146.61003)" />
    <g
       id="g1266"
       transform="matrix(0.35277777,0,0,-0.35277777,-197.44615,146.61003)" />
    <g
       id="g1268"
       transform="matrix(0.35277777,0,0,-0.35277777,-197.44615,146.61003)" />
    <g
       id="g1280"
       transform="matrix(0.35277777,0,0,-0.35277777,-197.44615,146.61003)" />
    <g
       id="g1282"
       transform="matrix(0.35277777,0,0,-0.35277777,-197.44615,146.61003)">
      <g
         id="g1284"
         clip-path="url(#clipPath1288)">
        <path
           d="M 267.01,52.09 V 129.6"
           style="fill:none;stroke:#000000;stroke-width:1.07;stroke-linecap:butt;stroke-linejoin:round;stroke-miterlimit:10;stroke-dasharray:none;stroke-opacity:1"
           id="path1290" />
        <path
           d="m 253.41,97.89 h 13.6 v 21.14 h -13.6 z"
           style="fill:#bebebe;fill-opacity:1;fill-rule:nonzero;stroke:none"
           id="path1292" />
        <path
           d="m 237.09,62.66 h 29.93 V 83.8 h -29.93 z"
           style="fill:#bebebe;fill-opacity:1;fill-rule:nonzero;stroke:none"
           id="path1294" />
        <path
           d="m 199,62.66 h 38.09 V 83.8 H 199 Z"
           style="fill:#ffa1c0;fill-opacity:1;fill-rule:nonzero;stroke:none"
           id="path1296" />
        <path
           d="m 242.53,97.89 h 10.88 v 21.14 h -10.88 z"
           style="fill:#f72068;fill-opacity:1;fill-rule:nonzero;stroke:none"
           id="path1298" />
        <path
           d="M 122.82,62.66 H 199 V 83.8 h -76.18 z"
           style="fill:#f72068;fill-opacity:1;fill-rule:nonzero;stroke:none"
           id="path1300" />
        <path
           d="m 267.01,62.66 h 29.93 V 83.8 h -29.93 z"
           style="fill:#bebebe;fill-opacity:1;fill-rule:nonzero;stroke:none"
           id="path1302" />
        <path
           d="m 267.01,97.89 h 13.6 v 21.14 h -13.6 z"
           style="fill:#bebebe;fill-opacity:1;fill-rule:nonzero;stroke:none"
           id="path1304" />
        <path
           d="m 296.94,62.66 h 16.32 V 83.8 h -16.32 z"
           style="fill:#9fd7f5;fill-opacity:1;fill-rule:nonzero;stroke:none"
           id="path1306" />
        <path
           d="m 280.62,97.89 h 48.97 v 21.14 h -48.97 z"
           style="fill:#9fd7f5;fill-opacity:1;fill-rule:nonzero;stroke:none"
           id="path1308" />
        <path
           d="m 313.26,62.66 h 27.21 V 83.8 h -27.21 z"
           style="fill:#42b6f5;fill-opacity:1;fill-rule:nonzero;stroke:none"
           id="path1310" />
        <path
           d="m 329.59,97.89 h 130.59 v 21.14 H 329.59 Z"
           style="fill:#42b6f5;fill-opacity:1;fill-rule:nonzero;stroke:none"
           id="path1312" />
        <text
           transform="matrix(1,0,0,-1,36.36,105.23)"
           style="font-variant:normal;font-weight:normal;font-size:9px;font-family:Helvetica;-inkscape-font-specification:Helvetica;writing-mode:lr-tb;fill:#000000;fill-opacity:1;fill-rule:nonzero;stroke:none"
           id="text1316"><tspan
             x="0 5.0040002"
             y="0"
             sodipodi:role="line"
             id="tspan1314">5%</tspan></text>
        <text
           transform="matrix(1,0,0,-1,31.35,70)"
           style="font-variant:normal;font-weight:normal;font-size:9px;font-family:Helvetica;-inkscape-font-specification:Helvetica;writing-mode:lr-tb;fill:#000000;fill-opacity:1;fill-rule:nonzero;stroke:none"
           id="text1320"><tspan
             x="0 5.0040002 10.008"
             y="0"
             sodipodi:role="line"
             id="tspan1318">52%</tspan></text>
        <text
           transform="matrix(1,0,0,-1,488.27,105.23)"
           style="font-variant:normal;font-weight:normal;font-size:9px;font-family:Helvetica;-inkscape-font-specification:Helvetica;writing-mode:lr-tb;fill:#000000;fill-opacity:1;fill-rule:nonzero;stroke:none"
           id="text1324"><tspan
             x="0 5.0040002 10.008"
             y="0"
             sodipodi:role="line"
             id="tspan1322">82%</tspan></text>
        <text
           transform="matrix(1,0,0,-1,488.27,70)"
           style="font-variant:normal;font-weight:normal;font-size:9px;font-family:Helvetica;-inkscape-font-specification:Helvetica;writing-mode:lr-tb;fill:#000000;fill-opacity:1;fill-rule:nonzero;stroke:none"
           id="text1328"><tspan
             x="0 5.0040002 10.008"
             y="0"
             sodipodi:role="line"
             id="tspan1326">20%</tspan></text>
        <text
           transform="matrix(1,0,0,-1,258.01,105.23)"
           style="font-variant:normal;font-weight:normal;font-size:9px;font-family:Helvetica;-inkscape-font-specification:Helvetica;writing-mode:lr-tb;fill:#000000;fill-opacity:1;fill-rule:nonzero;stroke:none"
           id="text1332"><tspan
             x="0 5.0040002 10.008"
             y="0"
             sodipodi:role="line"
             id="tspan1330">12%</tspan></text>
        <text
           transform="matrix(1,0,0,-1,258.01,70)"
           style="font-variant:normal;font-weight:normal;font-size:9px;font-family:Helvetica;-inkscape-font-specification:Helvetica;writing-mode:lr-tb;fill:#000000;fill-opacity:1;fill-rule:nonzero;stroke:none"
           id="text1336"><tspan
             x="0 5.0040002 10.008"
             y="0"
             sodipodi:role="line"
             id="tspan1334">28%</tspan></text>
        <path
           d="M 15.63,52.09 H 518.4 V 129.6 H 15.63 Z"
           style="fill:none;stroke:#bebebe;stroke-width:2.13;stroke-linecap:round;stroke-linejoin:round;stroke-miterlimit:10;stroke-dasharray:none;stroke-opacity:1"
           id="path1338" />
      </g>
    </g>
    <g
       id="g1340"
       transform="matrix(0.35277777,0,0,-0.35277777,-197.44615,146.61003)" />
    <g
       id="g1342"
       transform="matrix(0.35277777,0,0,-0.35277777,-197.44615,146.61003)" />
    <g
       id="g1344"
       transform="matrix(0.35277777,0,0,-0.35277777,-197.44615,146.61003)" />
    <g
       id="g1346"
       transform="matrix(0.35277777,0,0,-0.35277777,-197.44615,146.61003)" />
    <g
       id="g1348"
       transform="matrix(0.35277777,0,0,-0.35277777,-197.44615,146.61003)" />
    <g
       id="g1350"
       transform="matrix(0.35277777,0,0,-0.35277777,-197.44615,146.61003)" />
    <g
       id="g1352"
       transform="matrix(0.35277777,0,0,-0.35277777,-197.44615,146.61003)" />
    <g
       id="g1354"
       transform="matrix(0.35277777,0,0,-0.35277777,-197.44615,146.61003)" />
    <g
       id="g1356"
       transform="matrix(0.35277777,0,0,-0.35277777,-197.44615,146.61003)" />
    <g
       id="g1358"
       transform="matrix(0.35277777,0,0,-0.35277777,-197.44615,146.61003)" />
    <g
       id="g1360"
       transform="matrix(0.35277777,0,0,-0.35277777,-197.44615,146.61003)" />
    <g
       id="g1362"
       transform="matrix(0.35277777,0,0,-0.35277777,-197.44615,146.61003)" />
    <g
       id="g1364"
       transform="matrix(0.35277777,0,0,-0.35277777,-197.44615,146.61003)" />
    <g
       id="g1366"
       transform="matrix(0.35277777,0,0,-0.35277777,-197.44615,146.61003)" />
    <g
       id="g1368"
       transform="matrix(0.35277777,0,0,-0.35277777,-197.44615,146.61003)" />
    <g
       id="g1370"
       transform="matrix(0.35277777,0,0,-0.35277777,-197.44615,146.61003)" />
    <g
       id="g1372"
       transform="matrix(0.35277777,0,0,-0.35277777,-197.44615,146.61003)" />
    <g
       id="g1374"
       transform="matrix(0.35277777,0,0,-0.35277777,-197.44615,146.61003)" />
    <g
       id="g1376"
       transform="matrix(0.35277777,0,0,-0.35277777,-197.44615,146.61003)" />
    <g
       id="g1378"
       transform="matrix(0.35277777,0,0,-0.35277777,-197.44615,146.61003)" />
    <g
       id="g1380"
       transform="matrix(0.35277777,0,0,-0.35277777,-197.44615,146.61003)" />
    <g
       id="g1382"
       transform="matrix(0.35277777,0,0,-0.35277777,-197.44615,146.61003)" />
    <g
       id="g1384"
       transform="matrix(0.35277777,0,0,-0.35277777,-197.44615,146.61003)" />
    <g
       id="g1386"
       transform="matrix(0.35277777,0,0,-0.35277777,-197.44615,146.61003)" />
    <g
       id="g1388"
       transform="matrix(0.35277777,0,0,-0.35277777,-197.44615,146.61003)" />
    <g
       id="g1390"
       transform="matrix(0.35277777,0,0,-0.35277777,-197.44615,146.61003)" />
    <g
       id="g1392"
       transform="matrix(0.35277777,0,0,-0.35277777,-197.44615,146.61003)">
      <text
         transform="matrix(1,0,0,-1,41.86,40.7)"
         style="font-variant:normal;font-weight:normal;font-size:9px;font-family:Helvetica;-inkscape-font-specification:Helvetica;writing-mode:lr-tb;fill:#4d4d4d;fill-opacity:1;fill-rule:nonzero;stroke:none"
         id="text1396"><tspan
           x="0 5.0040002 10.008"
           y="0"
           sodipodi:role="line"
           id="tspan1394">100</tspan></text>
      <text
         transform="matrix(1,0,0,-1,153.18,40.7)"
         style="font-variant:normal;font-weight:normal;font-size:9px;font-family:Helvetica;-inkscape-font-specification:Helvetica;writing-mode:lr-tb;fill:#4d4d4d;fill-opacity:1;fill-rule:nonzero;stroke:none"
         id="text1400"><tspan
           x="0 5.0040002"
           y="0"
           sodipodi:role="line"
           id="tspan1398">50</tspan></text>
      <text
         transform="matrix(1,0,0,-1,264.51,40.7)"
         style="font-variant:normal;font-weight:normal;font-size:9px;font-family:Helvetica;-inkscape-font-specification:Helvetica;writing-mode:lr-tb;fill:#4d4d4d;fill-opacity:1;fill-rule:nonzero;stroke:none"
         id="text1404"><tspan
           x="0"
           y="0"
           id="tspan1402">0</tspan></text>
      <text
         transform="matrix(1,0,0,-1,370.83,40.7)"
         style="font-variant:normal;font-weight:normal;font-size:9px;font-family:Helvetica;-inkscape-font-specification:Helvetica;writing-mode:lr-tb;fill:#4d4d4d;fill-opacity:1;fill-rule:nonzero;stroke:none"
         id="text1408"><tspan
           x="0 5.0040002"
           y="0"
           sodipodi:role="line"
           id="tspan1406">50</tspan></text>
      <text
         transform="matrix(1,0,0,-1,477.16,40.7)"
         style="font-variant:normal;font-weight:normal;font-size:9px;font-family:Helvetica;-inkscape-font-specification:Helvetica;writing-mode:lr-tb;fill:#4d4d4d;fill-opacity:1;fill-rule:nonzero;stroke:none"
         id="text1412"><tspan
           x="0 5.0040002 10.008"
           y="0"
           sodipodi:role="line"
           id="tspan1410">100</tspan></text>
    </g>
    <g
       id="g1414"
       transform="matrix(0.35277777,0,0,-0.35277777,-197.44615,146.61003)" />
    <g
       id="g1416"
       transform="matrix(0.35277777,0,0,-0.35277777,-197.44615,146.61003)" />
    <g
       id="g1418"
       transform="matrix(0.35277777,0,0,-0.35277777,-197.44615,146.61003)" />
    <g
       id="g1420"
       transform="matrix(0.35277777,0,0,-0.35277777,-197.44615,146.61003)" />
    <g
       id="g1422"
       transform="matrix(0.35277777,0,0,-0.35277777,-197.44615,146.61003)" />
    <g
       id="g1424"
       transform="matrix(0.35277777,0,0,-0.35277777,-197.44615,146.61003)" />
    <g
       id="g1426"
       transform="matrix(0.35277777,0,0,-0.35277777,-197.44615,146.61003)" />
    <g
       id="g1428"
       transform="matrix(0.35277777,0,0,-0.35277777,-197.44615,146.61003)" />
    <g
       id="g1430"
       transform="matrix(0.35277777,0,0,-0.35277777,-197.44615,146.61003)" />
    <g
       id="g1432"
       transform="matrix(0.35277777,0,0,-0.35277777,-197.44615,146.61003)" />
    <g
       id="g1434"
       transform="matrix(0.35277777,0,0,-0.35277777,-197.44615,146.61003)" />
    <g
       id="g1436"
       transform="matrix(0.35277777,0,0,-0.35277777,-197.44615,146.61003)" />
    <g
       id="g1438"
       transform="matrix(0.35277777,0,0,-0.35277777,-197.44615,146.61003)" />
    <g
       id="g1440"
       transform="matrix(0.35277777,0,0,-0.35277777,-197.44615,146.61003)" />
    <g
       id="g1442"
       transform="matrix(0.35277777,0,0,-0.35277777,-197.44615,146.61003)" />
    <g
       id="g1448"
       transform="matrix(0.35277777,0,0,-0.35277777,-197.44615,146.61003)" />
    <g
       id="g1450"
       transform="matrix(0.35277777,0,0,-0.35277777,-197.44615,146.61003)" />
    <g
       id="g1452"
       transform="matrix(0.35277777,0,0,-0.35277777,-197.44615,146.61003)" />
    <g
       id="g1454"
       transform="matrix(0.35277777,0,0,-0.35277777,-197.44615,146.61003)">
      <path
         d="m 131.4,5.48 h 17.28 V 22.76 H 131.4 Z"
         style="fill:#f2f2f2;fill-opacity:1;fill-rule:nonzero;stroke:none"
         id="path1456" />
    </g>
    <g
       id="g1458"
       transform="matrix(0.35277777,0,0,-0.35277777,-197.44615,146.61003)" />
    <g
       id="g1460"
       transform="matrix(0.35277777,0,0,-0.35277777,-197.44615,146.61003)">
      <path
         d="m 132.1,6.19 h 15.86 V 22.05 H 132.1 Z"
         style="fill:#f72068;fill-opacity:1;fill-rule:nonzero;stroke:none"
         id="path1462" />
    </g>
    <g
       id="g1464"
       transform="matrix(0.35277777,0,0,-0.35277777,-197.44615,146.61003)" />
    <g
       id="g1466"
       transform="matrix(0.35277777,0,0,-0.35277777,-197.44615,146.61003)">
      <path
         d="m 132.1,6.19 h 15.86 V 22.05 H 132.1 Z"
         style="fill:#f72068;fill-opacity:1;fill-rule:nonzero;stroke:none"
         id="path1468" />
    </g>
    <g
       id="g1470"
       transform="matrix(0.35277777,0,0,-0.35277777,-197.44615,146.61003)" />
    <g
       id="g1472"
       transform="matrix(0.35277777,0,0,-0.35277777,-197.44615,146.61003)">
      <path
         d="m 182.13,5.48 h 17.28 v 17.28 h -17.28 z"
         style="fill:#f2f2f2;fill-opacity:1;fill-rule:nonzero;stroke:none"
         id="path1474" />
    </g>
    <g
       id="g1476"
       transform="matrix(0.35277777,0,0,-0.35277777,-197.44615,146.61003)" />
    <g
       id="g1478"
       transform="matrix(0.35277777,0,0,-0.35277777,-197.44615,146.61003)">
      <path
         d="M 182.84,6.19 H 198.7 V 22.05 H 182.84 Z"
         style="fill:#ffa1c0;fill-opacity:1;fill-rule:nonzero;stroke:none"
         id="path1480" />
    </g>
    <g
       id="g1482"
       transform="matrix(0.35277777,0,0,-0.35277777,-197.44615,146.61003)" />
    <g
       id="g1484"
       transform="matrix(0.35277777,0,0,-0.35277777,-197.44615,146.61003)">
      <path
         d="M 182.84,6.19 H 198.7 V 22.05 H 182.84 Z"
         style="fill:#ffa1c0;fill-opacity:1;fill-rule:nonzero;stroke:none"
         id="path1486" />
    </g>
    <g
       id="g1488"
       transform="matrix(0.35277777,0,0,-0.35277777,-197.44615,146.61003)" />
    <g
       id="g1490"
       transform="matrix(0.35277777,0,0,-0.35277777,-197.44615,146.61003)">
      <path
         d="m 232.87,5.48 h 17.28 v 17.28 h -17.28 z"
         style="fill:#f2f2f2;fill-opacity:1;fill-rule:nonzero;stroke:none"
         id="path1492" />
    </g>
    <g
       id="g1494"
       transform="matrix(0.35277777,0,0,-0.35277777,-197.44615,146.61003)" />
    <g
       id="g1496"
       transform="matrix(0.35277777,0,0,-0.35277777,-197.44615,146.61003)">
      <path
         d="m 233.58,6.19 h 15.86 v 15.86 h -15.86 z"
         style="fill:#bebebe;fill-opacity:1;fill-rule:nonzero;stroke:none"
         id="path1498" />
    </g>
    <g
       id="g1500"
       transform="matrix(0.35277777,0,0,-0.35277777,-197.44615,146.61003)" />
    <g
       id="g1502"
       transform="matrix(0.35277777,0,0,-0.35277777,-197.44615,146.61003)">
      <path
         d="m 233.58,6.19 h 15.86 v 15.86 h -15.86 z"
         style="fill:#bebebe;fill-opacity:1;fill-rule:nonzero;stroke:none"
         id="path1504" />
    </g>
    <g
       id="g1506"
       transform="matrix(0.35277777,0,0,-0.35277777,-197.44615,146.61003)" />
    <g
       id="g1508"
       transform="matrix(0.35277777,0,0,-0.35277777,-197.44615,146.61003)">
      <path
         d="m 308.36,5.48 h 17.28 v 17.28 h -17.28 z"
         style="fill:#f2f2f2;fill-opacity:1;fill-rule:nonzero;stroke:none"
         id="path1510" />
    </g>
    <g
       id="g1512"
       transform="matrix(0.35277777,0,0,-0.35277777,-197.44615,146.61003)" />
    <g
       id="g1514"
       transform="matrix(0.35277777,0,0,-0.35277777,-197.44615,146.61003)">
      <path
         d="m 309.07,6.19 h 15.86 v 15.86 h -15.86 z"
         style="fill:#9fd7f5;fill-opacity:1;fill-rule:nonzero;stroke:none"
         id="path1516" />
    </g>
    <g
       id="g1518"
       transform="matrix(0.35277777,0,0,-0.35277777,-197.44615,146.61003)" />
    <g
       id="g1520"
       transform="matrix(0.35277777,0,0,-0.35277777,-197.44615,146.61003)">
      <path
         d="m 309.07,6.19 h 15.86 v 15.86 h -15.86 z"
         style="fill:#9fd7f5;fill-opacity:1;fill-rule:nonzero;stroke:none"
         id="path1522" />
    </g>
    <g
       id="g1524"
       transform="matrix(0.35277777,0,0,-0.35277777,-197.44615,146.61003)" />
    <g
       id="g1526"
       transform="matrix(0.35277777,0,0,-0.35277777,-197.44615,146.61003)">
      <path
         d="m 356.85,5.48 h 17.28 v 17.28 h -17.28 z"
         style="fill:#f2f2f2;fill-opacity:1;fill-rule:nonzero;stroke:none"
         id="path1528" />
    </g>
    <g
       id="g1530"
       transform="matrix(0.35277777,0,0,-0.35277777,-197.44615,146.61003)" />
    <g
       id="g1532"
       transform="matrix(0.35277777,0,0,-0.35277777,-197.44615,146.61003)">
      <path
         d="m 357.56,6.19 h 15.86 v 15.86 h -15.86 z"
         style="fill:#42b6f5;fill-opacity:1;fill-rule:nonzero;stroke:none"
         id="path1534" />
    </g>
    <g
       id="g1536"
       transform="matrix(0.35277777,0,0,-0.35277777,-197.44615,146.61003)" />
    <g
       id="g1538"
       transform="matrix(0.35277777,0,0,-0.35277777,-197.44615,146.61003)">
      <path
         d="m 357.56,6.19 h 15.86 v 15.86 h -15.86 z"
         style="fill:#42b6f5;fill-opacity:1;fill-rule:nonzero;stroke:none"
         id="path1540" />
    </g>
    <g
       id="g1542"
       transform="matrix(0.35277777,0,0,-0.35277777,-197.44615,146.61003)" />
    <g
       id="g1544"
       transform="matrix(0.35277777,0,0,-0.35277777,-197.44615,146.61003)" />
    <g
       id="g1546"
       transform="matrix(0.35277777,0,0,-0.35277777,-197.44615,146.61003)" />
    <g
       id="g1548"
       transform="matrix(0.35277777,0,0,-0.35277777,-197.44615,146.61003)">
      <text
         transform="matrix(1,0,0,-1,154.16,10.89)"
         style="font-variant:normal;font-weight:normal;font-size:9px;font-family:Helvetica;-inkscape-font-specification:Helvetica;writing-mode:lr-tb;fill:#000000;fill-opacity:1;fill-rule:nonzero;stroke:none"
         id="text1552"><tspan
           x="0 5.0040002 9.7379999 14.013 19.017"
           y="0"
           sodipodi:role="line"
           id="tspan1550">never</tspan></text>
    </g>
    <g
       id="g1554"
       transform="matrix(0.35277777,0,0,-0.35277777,-197.44615,146.61003)" />
    <g
       id="g1556"
       transform="matrix(0.35277777,0,0,-0.35277777,-197.44615,146.61003)" />
    <g
       id="g1558"
       transform="matrix(0.35277777,0,0,-0.35277777,-197.44615,146.61003)" />
    <g
       id="g1560"
       transform="matrix(0.35277777,0,0,-0.35277777,-197.44615,146.61003)" />
    <g
       id="g1562"
       transform="matrix(0.35277777,0,0,-0.35277777,-197.44615,146.61003)">
      <text
         transform="matrix(1,0,0,-1,204.89,10.89)"
         style="font-variant:normal;font-weight:normal;font-size:9px;font-family:Helvetica;-inkscape-font-specification:Helvetica;writing-mode:lr-tb;fill:#000000;fill-opacity:1;fill-rule:nonzero;stroke:none"
         id="text1566"><tspan
           x="0 2.9070001 7.9109998 10.908 15.912 17.91"
           y="0"
           sodipodi:role="line"
           id="tspan1564">rarely</tspan></text>
    </g>
    <g
       id="g1568"
       transform="matrix(0.35277777,0,0,-0.35277777,-197.44615,146.61003)" />
    <g
       id="g1570"
       transform="matrix(0.35277777,0,0,-0.35277777,-197.44615,146.61003)" />
    <g
       id="g1572"
       transform="matrix(0.35277777,0,0,-0.35277777,-197.44615,146.61003)" />
    <g
       id="g1574"
       transform="matrix(0.35277777,0,0,-0.35277777,-197.44615,146.61003)" />
    <g
       id="g1576"
       transform="matrix(0.35277777,0,0,-0.35277777,-197.44615,146.61003)">
      <text
         transform="matrix(1,0,0,-1,255.63,10.89)"
         style="font-variant:normal;font-weight:normal;font-size:9px;font-family:Helvetica;-inkscape-font-specification:Helvetica;writing-mode:lr-tb;fill:#000000;fill-opacity:1;fill-rule:nonzero;stroke:none"
         id="text1580"><tspan
           x="0 4.5 9.5039997 17.000999 22.004999 24.507 26.504999 34.001999 39.006001"
           y="0"
           sodipodi:role="line"
           id="tspan1578">sometimes</tspan></text>
    </g>
    <g
       id="g1582"
       transform="matrix(0.35277777,0,0,-0.35277777,-197.44615,146.61003)" />
    <g
       id="g1584"
       transform="matrix(0.35277777,0,0,-0.35277777,-197.44615,146.61003)" />
    <g
       id="g1586"
       transform="matrix(0.35277777,0,0,-0.35277777,-197.44615,146.61003)" />
    <g
       id="g1588"
       transform="matrix(0.35277777,0,0,-0.35277777,-197.44615,146.61003)" />
    <g
       id="g1590"
       transform="matrix(0.35277777,0,0,-0.35277777,-197.44615,146.61003)">
      <text
         transform="matrix(1,0,0,-1,331.12,10.89)"
         style="font-variant:normal;font-weight:normal;font-size:9px;font-family:Helvetica;-inkscape-font-specification:Helvetica;writing-mode:lr-tb;fill:#000000;fill-opacity:1;fill-rule:nonzero;stroke:none"
         id="text1594"><tspan
           x="0 5.0040002 7.506 10.008 15.012"
           y="0"
           sodipodi:role="line"
           id="tspan1592">often</tspan></text>
    </g>
    <g
       id="g1596"
       transform="matrix(0.35277777,0,0,-0.35277777,-197.44615,146.61003)" />
    <g
       id="g1598"
       transform="matrix(0.35277777,0,0,-0.35277777,-197.44615,146.61003)" />
    <g
       id="g1600"
       transform="matrix(0.35277777,0,0,-0.35277777,-197.44615,146.61003)" />
    <g
       id="g1602"
       transform="matrix(0.35277777,0,0,-0.35277777,-197.44615,146.61003)" />
    <g
       id="g1604"
       transform="matrix(0.35277777,0,0,-0.35277777,-197.44615,146.61003)">
      <text
         transform="matrix(1,0,0,-1,379.61,10.89)"
         style="font-variant:normal;font-weight:normal;font-size:9px;font-family:Helvetica;-inkscape-font-specification:Helvetica;writing-mode:lr-tb;fill:#000000;fill-opacity:1;fill-rule:nonzero;stroke:none"
         id="text1608"><tspan
           x="0 5.0040002 7.0019999 13.365 18.099001 22.599001"
           y="0"
           sodipodi:role="line"
           id="tspan1606">always</tspan></text>
    </g>
    <g
       id="g1610"
       transform="matrix(0.35277777,0,0,-0.35277777,-197.44615,146.61003)" />
    <g
       id="g1612"
       transform="matrix(0.35277777,0,0,-0.35277777,-197.44615,146.61003)" />
    <g
       id="g1614"
       transform="matrix(0.35277777,0,0,-0.35277777,-197.44615,146.61003)" />
    <g
       id="g1616"
       transform="matrix(0.35277777,0,0,-0.35277777,-197.44615,146.61003)" />
    <g
       id="g1618"
       transform="matrix(0.35277777,0,0,-0.35277777,-197.44615,146.61003)" />
    <g
       id="g1620"
       transform="matrix(0.35277777,0,0,-0.35277777,-197.44615,146.61003)" />
    <g
       id="g1622"
       transform="matrix(0.35277777,0,0,-0.35277777,-197.44615,146.61003)" />
    <g
       id="g1624"
       transform="matrix(0.35277777,0,0,-0.35277777,-197.44615,146.61003)" />
    <g
       id="g1626"
       transform="matrix(0.35277777,0,0,-0.35277777,-197.44615,146.61003)" />
    <g
       id="g1628"
       transform="matrix(0.35277777,0,0,-0.35277777,-197.44615,146.61003)" />
    <g
       id="g1630"
       transform="matrix(0.35277777,0,0,-0.35277777,-197.44615,146.61003)" />
    <g
       id="g1632"
       transform="matrix(0.35277777,0,0,-0.35277777,-197.44615,146.61003)" />
    <g
       id="g1634"
       transform="matrix(0.35277777,0,0,-0.35277777,-197.44615,146.61003)" />
    <g
       id="g1636"
       transform="matrix(0.35277777,0,0,-0.35277777,-197.44615,146.61003)" />
    <g
       id="g1638"
       transform="matrix(0.35277777,0,0,-0.35277777,-197.44615,146.61003)" />
    <g
       id="g1640"
       transform="matrix(0.35277777,0,0,-0.35277777,-197.44615,146.61003)" />
    <g
       id="g1642"
       transform="matrix(0.35277777,0,0,-0.35277777,-197.44615,146.61003)" />
    <g
       id="g1654"
       transform="matrix(0.35277777,0,0,-0.35277777,-197.44615,146.61003)" />
    <g
       id="g1656"
       transform="matrix(0.35277777,0,0,-0.35277777,-197.44615,146.61003)">
      <g
         id="g1658"
         clip-path="url(#clipPath1662)" />
    </g>
    <g
       id="g1664"
       transform="matrix(0.35277777,0,0,-0.35277777,-197.44615,146.61003)" />
    <g
       id="g1666"
       transform="matrix(0.35277777,0,0,-0.35277777,-197.44615,146.61003)" />
    <g
       id="g1668"
       transform="matrix(0.35277777,0,0,-0.35277777,-197.44615,146.61003)" />
    <g
       id="g1670"
       transform="matrix(0.35277777,0,0,-0.35277777,-197.44615,146.61003)" />
    <g
       id="g1672"
       transform="matrix(0.35277777,0,0,-0.35277777,-197.44615,146.61003)" />
    <g
       id="g1674"
       transform="matrix(0.35277777,0,0,-0.35277777,-197.44615,146.61003)" />
    <g
       id="g1676"
       transform="matrix(0.35277777,0,0,-0.35277777,-197.44615,146.61003)" />
    <g
       id="g1678"
       transform="matrix(0.35277777,0,0,-0.35277777,-197.44615,146.61003)" />
    <g
       id="g1680"
       transform="matrix(0.35277777,0,0,-0.35277777,-197.44615,146.61003)" />
    <g
       id="g1682"
       transform="matrix(0.35277777,0,0,-0.35277777,-197.44615,146.61003)" />
    <g
       id="g1684"
       transform="matrix(0.35277777,0,0,-0.35277777,-197.44615,146.61003)" />
    <g
       id="g1686"
       transform="matrix(0.35277777,0,0,-0.35277777,-197.44615,146.61003)" />
    <g
       id="g1688"
       transform="matrix(0.35277777,0,0,-0.35277777,-197.44615,146.61003)" />
    <g
       id="g1690"
       transform="matrix(0.35277777,0,0,-0.35277777,-197.44615,146.61003)" />
    <g
       id="g1692"
       transform="matrix(0.35277777,0,0,-0.35277777,-197.44615,146.61003)" />
    <g
       id="g1694"
       transform="matrix(0.35277777,0,0,-0.35277777,-197.44615,146.61003)" />
    <g
       id="g1696"
       transform="matrix(0.35277777,0,0,-0.35277777,-197.44615,146.61003)" />
    <g
       id="g1698"
       transform="matrix(0.35277777,0,0,-0.35277777,-197.44615,146.61003)" />
    <g
       id="g1700"
       transform="matrix(0.35277777,0,0,-0.35277777,-197.44615,146.61003)" />
    <g
       id="g1702"
       transform="matrix(0.35277777,0,0,-0.35277777,-197.44615,146.61003)" />
    <g
       id="g1704"
       transform="matrix(0.35277777,0,0,-0.35277777,-197.44615,146.61003)" />
    <g
       id="g1706"
       transform="matrix(0.35277777,0,0,-0.35277777,-197.44615,146.61003)" />
    <g
       id="g1708"
       transform="matrix(0.35277777,0,0,-0.35277777,-197.44615,146.61003)" />
    <g
       id="g1710"
       transform="matrix(0.35277777,0,0,-0.35277777,-197.44615,146.61003)" />
    <g
       id="g1712"
       transform="matrix(0.35277777,0,0,-0.35277777,-197.44615,146.61003)" />
    <g
       id="g1714"
       transform="matrix(0.35277777,0,0,-0.35277777,-197.44615,146.61003)" />
    <g
       id="g1716"
       transform="matrix(0.35277777,0,0,-0.35277777,-197.44615,146.61003)" />
    <g
       id="g1718"
       transform="matrix(0.35277777,0,0,-0.35277777,-197.44615,146.61003)" />
    <g
       id="g1720"
       transform="matrix(0.35277777,0,0,-0.35277777,-197.44615,146.61003)" />
    <g
       id="g1722"
       transform="matrix(0.35277777,0,0,-0.35277777,-197.44615,146.61003)" />
    <g
       id="g1724"
       transform="matrix(0.35277777,0,0,-0.35277777,-197.44615,146.61003)" />
    <g
       id="g1726"
       transform="matrix(0.35277777,0,0,-0.35277777,-197.44615,146.61003)" />
    <g
       id="g1728"
       transform="matrix(0.35277777,0,0,-0.35277777,-197.44615,146.61003)" />
    <g
       id="g1730"
       transform="matrix(0.35277777,0,0,-0.35277777,-197.44615,146.61003)" />
    <g
       id="g1732"
       transform="matrix(0.35277777,0,0,-0.35277777,-197.44615,146.61003)" />
    <g
       id="g1734"
       transform="matrix(0.35277777,0,0,-0.35277777,-197.44615,146.61003)" />
    <g
       id="g1736"
       transform="matrix(0.35277777,0,0,-0.35277777,-197.44615,146.61003)" />
    <g
       id="g1738"
       transform="matrix(0.35277777,0,0,-0.35277777,-197.44615,146.61003)" />
    <g
       id="g1740"
       transform="matrix(0.35277777,0,0,-0.35277777,-197.44615,146.61003)" />
    <g
       id="g1752"
       transform="matrix(0.35277777,0,0,-0.35277777,-197.44615,146.61003)" />
    <g
       id="g1754"
       transform="matrix(0.35277777,0,0,-0.35277777,-197.44615,146.61003)">
      <g
         id="g1756"
         clip-path="url(#clipPath1760)">
        <path
           d="M 1044.61,52.09 V 129.6"
           style="fill:none;stroke:#000000;stroke-width:1.07;stroke-linecap:butt;stroke-linejoin:round;stroke-miterlimit:10;stroke-dasharray:none;stroke-opacity:1"
           id="path1762" />
        <path
           d="m 1027.43,97.89 h 17.18 v 21.14 h -17.18 z"
           style="fill:#bebebe;fill-opacity:1;fill-rule:nonzero;stroke:none"
           id="path1764" />
        <path
           d="m 1033.45,62.66 h 11.16 V 83.8 h -11.16 z"
           style="fill:#bebebe;fill-opacity:1;fill-rule:nonzero;stroke:none"
           id="path1766" />
        <path
           d="m 1021.7,97.89 h 5.73 v 21.14 h -5.73 z"
           style="fill:#ffa1c0;fill-opacity:1;fill-rule:nonzero;stroke:none"
           id="path1768" />
        <path
           d="m 1005.55,62.66 h 27.9 V 83.8 h -27.9 z"
           style="fill:#ffa1c0;fill-opacity:1;fill-rule:nonzero;stroke:none"
           id="path1770" />
        <path
           d="m 1015.98,97.89 h 5.73 v 21.14 h -5.73 z"
           style="fill:#f72068;fill-opacity:1;fill-rule:nonzero;stroke:none"
           id="path1772" />
        <path
           d="m 999.97,62.66 h 5.58 V 83.8 h -5.58 z"
           style="fill:#f72068;fill-opacity:1;fill-rule:nonzero;stroke:none"
           id="path1774" />
        <path
           d="m 1044.61,62.66 h 11.16 V 83.8 h -11.16 z"
           style="fill:#bebebe;fill-opacity:1;fill-rule:nonzero;stroke:none"
           id="path1776" />
        <path
           d="m 1044.61,97.89 h 17.18 v 21.14 h -17.18 z"
           style="fill:#bebebe;fill-opacity:1;fill-rule:nonzero;stroke:none"
           id="path1778" />
        <path
           d="m 1055.78,62.66 h 66.97 V 83.8 h -66.97 z"
           style="fill:#9fd7f5;fill-opacity:1;fill-rule:nonzero;stroke:none"
           id="path1780" />
        <path
           d="m 1061.8,97.89 h 40.09 v 21.14 h -40.09 z"
           style="fill:#9fd7f5;fill-opacity:1;fill-rule:nonzero;stroke:none"
           id="path1782" />
        <path
           d="m 1122.74,62.66 h 94.87 V 83.8 h -94.87 z"
           style="fill:#42b6f5;fill-opacity:1;fill-rule:nonzero;stroke:none"
           id="path1784" />
        <path
           d="m 1101.89,97.89 h 131.74 v 21.14 h -131.74 z"
           style="fill:#42b6f5;fill-opacity:1;fill-rule:nonzero;stroke:none"
           id="path1786" />
        <text
           transform="matrix(1,0,0,-1,813.96,105.23)"
           style="font-variant:normal;font-weight:normal;font-size:9px;font-family:Helvetica;-inkscape-font-specification:Helvetica;writing-mode:lr-tb;fill:#000000;fill-opacity:1;fill-rule:nonzero;stroke:none"
           id="text1790"><tspan
             x="0 5.0040002"
             y="0"
             sodipodi:role="line"
             id="tspan1788">5%</tspan></text>
        <text
           transform="matrix(1,0,0,-1,808.95,70)"
           style="font-variant:normal;font-weight:normal;font-size:9px;font-family:Helvetica;-inkscape-font-specification:Helvetica;writing-mode:lr-tb;fill:#000000;fill-opacity:1;fill-rule:nonzero;stroke:none"
           id="text1794"><tspan
             x="0 5.0040002 10.008"
             y="0"
             sodipodi:role="line"
             id="tspan1792">15%</tspan></text>
        <text
           transform="matrix(1,0,0,-1,1265.87,105.23)"
           style="font-variant:normal;font-weight:normal;font-size:9px;font-family:Helvetica;-inkscape-font-specification:Helvetica;writing-mode:lr-tb;fill:#000000;fill-opacity:1;fill-rule:nonzero;stroke:none"
           id="text1798"><tspan
             x="0 5.0040002 10.008"
             y="0"
             sodipodi:role="line"
             id="tspan1796">79%</tspan></text>
        <text
           transform="matrix(1,0,0,-1,1265.87,70)"
           style="font-variant:normal;font-weight:normal;font-size:9px;font-family:Helvetica;-inkscape-font-specification:Helvetica;writing-mode:lr-tb;fill:#000000;fill-opacity:1;fill-rule:nonzero;stroke:none"
           id="text1802"><tspan
             x="0 5.0040002 10.008"
             y="0"
             sodipodi:role="line"
             id="tspan1800">74%</tspan></text>
        <text
           transform="matrix(1,0,0,-1,1035.61,105.23)"
           style="font-variant:normal;font-weight:normal;font-size:9px;font-family:Helvetica;-inkscape-font-specification:Helvetica;writing-mode:lr-tb;fill:#000000;fill-opacity:1;fill-rule:nonzero;stroke:none"
           id="text1806"><tspan
             x="0 5.0040002 10.008"
             y="0"
             sodipodi:role="line"
             id="tspan1804">16%</tspan></text>
        <text
           transform="matrix(1,0,0,-1,1035.61,70)"
           style="font-variant:normal;font-weight:normal;font-size:9px;font-family:Helvetica;-inkscape-font-specification:Helvetica;writing-mode:lr-tb;fill:#000000;fill-opacity:1;fill-rule:nonzero;stroke:none"
           id="text1810"><tspan
             x="0 5.0040002 10.008"
             y="0"
             sodipodi:role="line"
             id="tspan1808">10%</tspan></text>
        <path
           d="M 793.23,52.09 H 1296 V 129.6 H 793.23 Z"
           style="fill:none;stroke:#bebebe;stroke-width:2.13;stroke-linecap:round;stroke-linejoin:round;stroke-miterlimit:10;stroke-dasharray:none;stroke-opacity:1"
           id="path1812" />
      </g>
    </g>
    <g
       id="g1814"
       transform="matrix(0.35277777,0,0,-0.35277777,-197.44615,146.61003)" />
    <g
       id="g1816"
       transform="matrix(0.35277777,0,0,-0.35277777,-197.44615,146.61003)" />
    <g
       id="g1818"
       transform="matrix(0.35277777,0,0,-0.35277777,-197.44615,146.61003)" />
    <g
       id="g1820"
       transform="matrix(0.35277777,0,0,-0.35277777,-197.44615,146.61003)" />
    <g
       id="g1822"
       transform="matrix(0.35277777,0,0,-0.35277777,-197.44615,146.61003)" />
    <g
       id="g1824"
       transform="matrix(0.35277777,0,0,-0.35277777,-197.44615,146.61003)" />
    <g
       id="g1826"
       transform="matrix(0.35277777,0,0,-0.35277777,-197.44615,146.61003)" />
    <g
       id="g1828"
       transform="matrix(0.35277777,0,0,-0.35277777,-197.44615,146.61003)" />
    <g
       id="g1830"
       transform="matrix(0.35277777,0,0,-0.35277777,-197.44615,146.61003)" />
    <g
       id="g1832"
       transform="matrix(0.35277777,0,0,-0.35277777,-197.44615,146.61003)" />
    <g
       id="g1834"
       transform="matrix(0.35277777,0,0,-0.35277777,-197.44615,146.61003)" />
    <g
       id="g1836"
       transform="matrix(0.35277777,0,0,-0.35277777,-197.44615,146.61003)" />
    <g
       id="g1838"
       transform="matrix(0.35277777,0,0,-0.35277777,-197.44615,146.61003)" />
    <g
       id="g1840"
       transform="matrix(0.35277777,0,0,-0.35277777,-197.44615,146.61003)" />
    <g
       id="g1842"
       transform="matrix(0.35277777,0,0,-0.35277777,-197.44615,146.61003)" />
    <g
       id="g1844"
       transform="matrix(0.35277777,0,0,-0.35277777,-197.44615,146.61003)" />
    <g
       id="g1846"
       transform="matrix(0.35277777,0,0,-0.35277777,-197.44615,146.61003)" />
    <g
       id="g1848"
       transform="matrix(0.35277777,0,0,-0.35277777,-197.44615,146.61003)" />
    <g
       id="g1850"
       transform="matrix(0.35277777,0,0,-0.35277777,-197.44615,146.61003)" />
    <g
       id="g1852"
       transform="matrix(0.35277777,0,0,-0.35277777,-197.44615,146.61003)" />
    <g
       id="g1854"
       transform="matrix(0.35277777,0,0,-0.35277777,-197.44615,146.61003)" />
    <g
       id="g1856"
       transform="matrix(0.35277777,0,0,-0.35277777,-197.44615,146.61003)" />
    <g
       id="g1858"
       transform="matrix(0.35277777,0,0,-0.35277777,-197.44615,146.61003)" />
    <g
       id="g1860"
       transform="matrix(0.35277777,0,0,-0.35277777,-197.44615,146.61003)" />
    <g
       id="g1862"
       transform="matrix(0.35277777,0,0,-0.35277777,-197.44615,146.61003)" />
    <g
       id="g1864"
       transform="matrix(0.35277777,0,0,-0.35277777,-197.44615,146.61003)" />
    <g
       id="g1866"
       transform="matrix(0.35277777,0,0,-0.35277777,-197.44615,146.61003)">
      <text
         transform="matrix(1,0,0,-1,819.46,40.7)"
         style="font-variant:normal;font-weight:normal;font-size:9px;font-family:Helvetica;-inkscape-font-specification:Helvetica;writing-mode:lr-tb;fill:#4d4d4d;fill-opacity:1;fill-rule:nonzero;stroke:none"
         id="text1870"><tspan
           x="0 5.0040002 10.008"
           y="0"
           sodipodi:role="line"
           id="tspan1868">100</tspan></text>
      <text
         transform="matrix(1,0,0,-1,930.78,40.7)"
         style="font-variant:normal;font-weight:normal;font-size:9px;font-family:Helvetica;-inkscape-font-specification:Helvetica;writing-mode:lr-tb;fill:#4d4d4d;fill-opacity:1;fill-rule:nonzero;stroke:none"
         id="text1874"><tspan
           x="0 5.0040002"
           y="0"
           sodipodi:role="line"
           id="tspan1872">50</tspan></text>
      <text
         transform="matrix(1,0,0,-1,1042.11,40.7)"
         style="font-variant:normal;font-weight:normal;font-size:9px;font-family:Helvetica;-inkscape-font-specification:Helvetica;writing-mode:lr-tb;fill:#4d4d4d;fill-opacity:1;fill-rule:nonzero;stroke:none"
         id="text1878"><tspan
           x="0"
           y="0"
           id="tspan1876">0</tspan></text>
      <text
         transform="matrix(1,0,0,-1,1148.43,40.7)"
         style="font-variant:normal;font-weight:normal;font-size:9px;font-family:Helvetica;-inkscape-font-specification:Helvetica;writing-mode:lr-tb;fill:#4d4d4d;fill-opacity:1;fill-rule:nonzero;stroke:none"
         id="text1882"><tspan
           x="0 5.0040002"
           y="0"
           sodipodi:role="line"
           id="tspan1880">50</tspan></text>
      <text
         transform="matrix(1,0,0,-1,1254.76,40.7)"
         style="font-variant:normal;font-weight:normal;font-size:9px;font-family:Helvetica;-inkscape-font-specification:Helvetica;writing-mode:lr-tb;fill:#4d4d4d;fill-opacity:1;fill-rule:nonzero;stroke:none"
         id="text1886"><tspan
           x="0 5.0040002 10.008"
           y="0"
           sodipodi:role="line"
           id="tspan1884">100</tspan></text>
    </g>
    <g
       id="g1888"
       transform="matrix(0.35277777,0,0,-0.35277777,-197.44615,146.61003)" />
    <g
       id="g1890"
       transform="matrix(0.35277777,0,0,-0.35277777,-197.44615,146.61003)" />
    <g
       id="g1892"
       transform="matrix(0.35277777,0,0,-0.35277777,-197.44615,146.61003)" />
    <g
       id="g1894"
       transform="matrix(0.35277777,0,0,-0.35277777,-197.44615,146.61003)" />
    <g
       id="g1896"
       transform="matrix(0.35277777,0,0,-0.35277777,-197.44615,146.61003)" />
    <g
       id="g1898"
       transform="matrix(0.35277777,0,0,-0.35277777,-197.44615,146.61003)" />
    <g
       id="g1900"
       transform="matrix(0.35277777,0,0,-0.35277777,-197.44615,146.61003)" />
    <g
       id="g1902"
       transform="matrix(0.35277777,0,0,-0.35277777,-197.44615,146.61003)" />
    <g
       id="g1904"
       transform="matrix(0.35277777,0,0,-0.35277777,-197.44615,146.61003)" />
    <g
       id="g1906"
       transform="matrix(0.35277777,0,0,-0.35277777,-197.44615,146.61003)" />
    <g
       id="g1908"
       transform="matrix(0.35277777,0,0,-0.35277777,-197.44615,146.61003)" />
    <g
       id="g1910"
       transform="matrix(0.35277777,0,0,-0.35277777,-197.44615,146.61003)" />
    <g
       id="g1912"
       transform="matrix(0.35277777,0,0,-0.35277777,-197.44615,146.61003)" />
    <g
       id="g1914"
       transform="matrix(0.35277777,0,0,-0.35277777,-197.44615,146.61003)" />
    <g
       id="g1916"
       transform="matrix(0.35277777,0,0,-0.35277777,-197.44615,146.61003)" />
    <g
       id="g1922"
       transform="matrix(0.35277777,0,0,-0.35277777,-197.44615,146.61003)" />
    <g
       id="g1924"
       transform="matrix(0.35277777,0,0,-0.35277777,-197.44615,146.61003)" />
    <g
       id="g1926"
       transform="matrix(0.35277777,0,0,-0.35277777,-197.44615,146.61003)" />
    <g
       id="g1928"
       transform="matrix(0.35277777,0,0,-0.35277777,-197.44615,146.61003)">
      <path
         d="m 823.5,5.48 h 17.28 V 22.76 H 823.5 Z"
         style="fill:#f2f2f2;fill-opacity:1;fill-rule:nonzero;stroke:none"
         id="path1930" />
    </g>
    <g
       id="g1932"
       transform="matrix(0.35277777,0,0,-0.35277777,-197.44615,146.61003)" />
    <g
       id="g1934"
       transform="matrix(0.35277777,0,0,-0.35277777,-197.44615,146.61003)">
      <path
         d="m 824.2,6.19 h 15.86 V 22.05 H 824.2 Z"
         style="fill:#f72068;fill-opacity:1;fill-rule:nonzero;stroke:none"
         id="path1936" />
    </g>
    <g
       id="g1938"
       transform="matrix(0.35277777,0,0,-0.35277777,-197.44615,146.61003)" />
    <g
       id="g1940"
       transform="matrix(0.35277777,0,0,-0.35277777,-197.44615,146.61003)">
      <path
         d="m 824.2,6.19 h 15.86 V 22.05 H 824.2 Z"
         style="fill:#f72068;fill-opacity:1;fill-rule:nonzero;stroke:none"
         id="path1942" />
    </g>
    <g
       id="g1944"
       transform="matrix(0.35277777,0,0,-0.35277777,-197.44615,146.61003)" />
    <g
       id="g1946"
       transform="matrix(0.35277777,0,0,-0.35277777,-197.44615,146.61003)">
      <path
         d="m 930.48,5.48 h 17.28 v 17.28 h -17.28 z"
         style="fill:#f2f2f2;fill-opacity:1;fill-rule:nonzero;stroke:none"
         id="path1948" />
    </g>
    <g
       id="g1950"
       transform="matrix(0.35277777,0,0,-0.35277777,-197.44615,146.61003)" />
    <g
       id="g1952"
       transform="matrix(0.35277777,0,0,-0.35277777,-197.44615,146.61003)">
      <path
         d="m 931.19,6.19 h 15.86 v 15.86 h -15.86 z"
         style="fill:#ffa1c0;fill-opacity:1;fill-rule:nonzero;stroke:none"
         id="path1954" />
    </g>
    <g
       id="g1956"
       transform="matrix(0.35277777,0,0,-0.35277777,-197.44615,146.61003)" />
    <g
       id="g1958"
       transform="matrix(0.35277777,0,0,-0.35277777,-197.44615,146.61003)">
      <path
         d="m 931.19,6.19 h 15.86 v 15.86 h -15.86 z"
         style="fill:#ffa1c0;fill-opacity:1;fill-rule:nonzero;stroke:none"
         id="path1960" />
    </g>
    <g
       id="g1962"
       transform="matrix(0.35277777,0,0,-0.35277777,-197.44615,146.61003)" />
    <g
       id="g1964"
       transform="matrix(0.35277777,0,0,-0.35277777,-197.44615,146.61003)">
      <path
         d="M 1036.72,5.48 H 1054 v 17.28 h -17.28 z"
         style="fill:#f2f2f2;fill-opacity:1;fill-rule:nonzero;stroke:none"
         id="path1966" />
    </g>
    <g
       id="g1968"
       transform="matrix(0.35277777,0,0,-0.35277777,-197.44615,146.61003)" />
    <g
       id="g1970"
       transform="matrix(0.35277777,0,0,-0.35277777,-197.44615,146.61003)">
      <path
         d="m 1037.43,6.19 h 15.86 v 15.86 h -15.86 z"
         style="fill:#bebebe;fill-opacity:1;fill-rule:nonzero;stroke:none"
         id="path1972" />
    </g>
    <g
       id="g1974"
       transform="matrix(0.35277777,0,0,-0.35277777,-197.44615,146.61003)" />
    <g
       id="g1976"
       transform="matrix(0.35277777,0,0,-0.35277777,-197.44615,146.61003)">
      <path
         d="m 1037.43,6.19 h 15.86 v 15.86 h -15.86 z"
         style="fill:#bebebe;fill-opacity:1;fill-rule:nonzero;stroke:none"
         id="path1978" />
    </g>
    <g
       id="g1980"
       transform="matrix(0.35277777,0,0,-0.35277777,-197.44615,146.61003)" />
    <g
       id="g1982"
       transform="matrix(0.35277777,0,0,-0.35277777,-197.44615,146.61003)">
      <path
         d="m 1093.46,5.48 h 17.28 v 17.28 h -17.28 z"
         style="fill:#f2f2f2;fill-opacity:1;fill-rule:nonzero;stroke:none"
         id="path1984" />
    </g>
    <g
       id="g1986"
       transform="matrix(0.35277777,0,0,-0.35277777,-197.44615,146.61003)" />
    <g
       id="g1988"
       transform="matrix(0.35277777,0,0,-0.35277777,-197.44615,146.61003)">
      <path
         d="m 1094.17,6.19 h 15.86 v 15.86 h -15.86 z"
         style="fill:#9fd7f5;fill-opacity:1;fill-rule:nonzero;stroke:none"
         id="path1990" />
    </g>
    <g
       id="g1992"
       transform="matrix(0.35277777,0,0,-0.35277777,-197.44615,146.61003)" />
    <g
       id="g1994"
       transform="matrix(0.35277777,0,0,-0.35277777,-197.44615,146.61003)">
      <path
         d="m 1094.17,6.19 h 15.86 v 15.86 h -15.86 z"
         style="fill:#9fd7f5;fill-opacity:1;fill-rule:nonzero;stroke:none"
         id="path1996" />
    </g>
    <g
       id="g1998"
       transform="matrix(0.35277777,0,0,-0.35277777,-197.44615,146.61003)" />
    <g
       id="g2000"
       transform="matrix(0.35277777,0,0,-0.35277777,-197.44615,146.61003)">
      <path
         d="m 1184.7,5.48 h 17.28 v 17.28 h -17.28 z"
         style="fill:#f2f2f2;fill-opacity:1;fill-rule:nonzero;stroke:none"
         id="path2002" />
    </g>
    <g
       id="g2004"
       transform="matrix(0.35277777,0,0,-0.35277777,-197.44615,146.61003)" />
    <g
       id="g2006"
       transform="matrix(0.35277777,0,0,-0.35277777,-197.44615,146.61003)">
      <path
         d="m 1185.41,6.19 h 15.86 v 15.86 h -15.86 z"
         style="fill:#42b6f5;fill-opacity:1;fill-rule:nonzero;stroke:none"
         id="path2008" />
    </g>
    <g
       id="g2010"
       transform="matrix(0.35277777,0,0,-0.35277777,-197.44615,146.61003)" />
    <g
       id="g2012"
       transform="matrix(0.35277777,0,0,-0.35277777,-197.44615,146.61003)">
      <path
         d="m 1185.41,6.19 h 15.86 v 15.86 h -15.86 z"
         style="fill:#42b6f5;fill-opacity:1;fill-rule:nonzero;stroke:none"
         id="path2014" />
    </g>
    <g
       id="g2016"
       transform="matrix(0.35277777,0,0,-0.35277777,-197.44615,146.61003)" />
    <g
       id="g2018"
       transform="matrix(0.35277777,0,0,-0.35277777,-197.44615,146.61003)" />
    <g
       id="g2020"
       transform="matrix(0.35277777,0,0,-0.35277777,-197.44615,146.61003)" />
    <g
       id="g2022"
       transform="matrix(0.35277777,0,0,-0.35277777,-197.44615,146.61003)">
      <text
         transform="matrix(1,0,0,-1,846.26,10.89)"
         style="font-variant:normal;font-weight:normal;font-size:9px;font-family:Helvetica;-inkscape-font-specification:Helvetica;writing-mode:lr-tb;fill:#000000;fill-opacity:1;fill-rule:nonzero;stroke:none"
         id="text2026"><tspan
           x="0 5.0040002 10.008 12.51 14.508 19.511999 21.51 24.011999 29.016001 31.014 35.514 38.015999 43.02 48.023998 50.526001 53.028 58.032001 62.532001 67.536003 70.038002 75.042"
           y="0"
           sodipodi:role="line"
           id="tspan2024">definitely not useful</tspan></text>
    </g>
    <g
       id="g2028"
       transform="matrix(0.35277777,0,0,-0.35277777,-197.44615,146.61003)" />
    <g
       id="g2030"
       transform="matrix(0.35277777,0,0,-0.35277777,-197.44615,146.61003)" />
    <g
       id="g2032"
       transform="matrix(0.35277777,0,0,-0.35277777,-197.44615,146.61003)" />
    <g
       id="g2034"
       transform="matrix(0.35277777,0,0,-0.35277777,-197.44615,146.61003)" />
    <g
       id="g2036"
       transform="matrix(0.35277777,0,0,-0.35277777,-197.44615,146.61003)">
      <text
         transform="matrix(1,0,0,-1,953.24,10.89)"
         style="font-variant:normal;font-weight:normal;font-size:9px;font-family:Helvetica;-inkscape-font-specification:Helvetica;writing-mode:lr-tb;fill:#000000;fill-opacity:1;fill-rule:nonzero;stroke:none"
         id="text2040"><tspan
           x="0 5.0040002 8.0010004 13.005 18.009001 23.013 27.837 29.834999 34.334999 36.837002 41.841 46.845001 49.347 51.848999 56.853001 61.353001 66.357002 68.859001 73.862999"
           y="0"
           sodipodi:role="line"
           id="tspan2038">probably not useful</tspan></text>
    </g>
    <g
       id="g2042"
       transform="matrix(0.35277777,0,0,-0.35277777,-197.44615,146.61003)" />
    <g
       id="g2044"
       transform="matrix(0.35277777,0,0,-0.35277777,-197.44615,146.61003)" />
    <g
       id="g2046"
       transform="matrix(0.35277777,0,0,-0.35277777,-197.44615,146.61003)" />
    <g
       id="g2048"
       transform="matrix(0.35277777,0,0,-0.35277777,-197.44615,146.61003)" />
    <g
       id="g2050"
       transform="matrix(0.35277777,0,0,-0.35277777,-197.44615,146.61003)">
      <text
         transform="matrix(1,0,0,-1,1059.48,10.89)"
         style="font-variant:normal;font-weight:normal;font-size:9px;font-family:Helvetica;-inkscape-font-specification:Helvetica;writing-mode:lr-tb;fill:#000000;fill-opacity:1;fill-rule:nonzero;stroke:none"
         id="text2054"><tspan
           x="0 5.0040002 10.008 15.012 17.514 20.421 25.424999"
           y="0"
           sodipodi:role="line"
           id="tspan2052">neutral</tspan></text>
    </g>
    <g
       id="g2056"
       transform="matrix(0.35277777,0,0,-0.35277777,-197.44615,146.61003)" />
    <g
       id="g2058"
       transform="matrix(0.35277777,0,0,-0.35277777,-197.44615,146.61003)" />
    <g
       id="g2060"
       transform="matrix(0.35277777,0,0,-0.35277777,-197.44615,146.61003)" />
    <g
       id="g2062"
       transform="matrix(0.35277777,0,0,-0.35277777,-197.44615,146.61003)" />
    <g
       id="g2064"
       transform="matrix(0.35277777,0,0,-0.35277777,-197.44615,146.61003)">
      <text
         transform="matrix(1,0,0,-1,1116.22,10.89)"
         style="font-variant:normal;font-weight:normal;font-size:9px;font-family:Helvetica;-inkscape-font-specification:Helvetica;writing-mode:lr-tb;fill:#000000;fill-opacity:1;fill-rule:nonzero;stroke:none"
         id="text2068"><tspan
           x="0 5.0040002 8.0010004 13.005 18.009001 23.013 27.837 29.834999 34.334999 36.837002 41.841 46.341 51.345001 53.847 58.851002"
           y="0"
           sodipodi:role="line"
           id="tspan2066">probably useful</tspan></text>
    </g>
    <g
       id="g2070"
       transform="matrix(0.35277777,0,0,-0.35277777,-197.44615,146.61003)" />
    <g
       id="g2072"
       transform="matrix(0.35277777,0,0,-0.35277777,-197.44615,146.61003)" />
    <g
       id="g2074"
       transform="matrix(0.35277777,0,0,-0.35277777,-197.44615,146.61003)" />
    <g
       id="g2076"
       transform="matrix(0.35277777,0,0,-0.35277777,-197.44615,146.61003)" />
    <g
       id="g2078"
       transform="matrix(0.35277777,0,0,-0.35277777,-197.44615,146.61003)">
      <text
         transform="matrix(1,0,0,-1,1207.46,10.89)"
         style="font-variant:normal;font-weight:normal;font-size:9px;font-family:Helvetica;-inkscape-font-specification:Helvetica;writing-mode:lr-tb;fill:#000000;fill-opacity:1;fill-rule:nonzero;stroke:none"
         id="text2082"><tspan
           x="0 5.0040002 10.008 12.51 14.508 19.511999 21.51 24.011999 29.016001 31.014 35.514 38.015999 43.02 47.52 52.523998 55.026001 60.029999"
           y="0"
           sodipodi:role="line"
           id="tspan2080">definitely useful</tspan></text>
    </g>
    <g
       id="g2084"
       transform="matrix(0.35277777,0,0,-0.35277777,-197.44615,146.61003)" />
    <g
       id="g2086"
       transform="matrix(0.35277777,0,0,-0.35277777,-197.44615,146.61003)" />
    <g
       id="g2088"
       transform="matrix(0.35277777,0,0,-0.35277777,-197.44615,146.61003)" />
    <g
       id="g2090"
       transform="matrix(0.35277777,0,0,-0.35277777,-197.44615,146.61003)" />
    <g
       id="g2092"
       transform="matrix(0.35277777,0,0,-0.35277777,-197.44615,146.61003)" />
    <g
       id="g2094"
       transform="matrix(0.35277777,0,0,-0.35277777,-197.44615,146.61003)" />
    <g
       id="g2096"
       transform="matrix(0.35277777,0,0,-0.35277777,-197.44615,146.61003)" />
    <g
       id="g2098"
       transform="matrix(0.35277777,0,0,-0.35277777,-197.44615,146.61003)" />
    <g
       id="g2100"
       transform="matrix(0.35277777,0,0,-0.35277777,-197.44615,146.61003)" />
    <g
       id="g2102"
       transform="matrix(0.35277777,0,0,-0.35277777,-197.44615,146.61003)" />
    <g
       id="g2104"
       transform="matrix(0.35277777,0,0,-0.35277777,-197.44615,146.61003)" />
    <g
       id="g2106"
       transform="matrix(0.35277777,0,0,-0.35277777,-197.44615,146.61003)" />
    <g
       id="g2108"
       transform="matrix(0.35277777,0,0,-0.35277777,-197.44615,146.61003)" />
    <g
       id="g2110"
       transform="matrix(0.35277777,0,0,-0.35277777,-197.44615,146.61003)" />
  </g>
</svg>
